<svg version="1" xmlns="http://www.w3.org/2000/svg" viewBox="0 0 2548.3409 2558.5636" preserveAspectRatio="xMaxYMax"><path d="M1090 2545c-52-7-140-28-195-45-434-139-758-493-861-940-25-107-30-378-10-500 45-263 157-482 349-678C547 205 732 97 957 41c373-93 758-24 1069 191 91 62 265 241 326 333 146 224 208 437 208 716 0 278-64 493-214 718-75 113-239 278-342 344-282 182-581 248-914 202zm404-331c289-73 524-261 651-519 75-153 90-223 90-415 0-142-3-176-23-245-96-332-364-596-691-682-133-35-325-37-456-4-297 72-558 302-674 593-83 209-80 471 7 696 96 249 347 477 612 555 119 36 110 35 274 36 104 1 166-4 210-15z" fill="#FFF"/></svg>