<svg version="1.0" xmlns="http://www.w3.org/2000/svg" width="100%" height="100%" viewBox="0 0 2548.3409 2558.5636" preserveAspectRatio="xMaxYMax" ><g fill="#FFFFFF" stroke="none"><path d="m 1090,2545 c -52,-7 -140,-28 -195,-45 C 461,2361 137,2007 34,1560 9,1453 4,1182 24,1060 69,797 181,578 373,382 547,205 732,97 957,41 c 373,-93 758,-24 1069,191 91,62 265,241 326,333 146,224 208,437 208,716 0,278 -64,493 -214,718 -75,113 -239,278 -342,344 -282,182 -581,248 -914,202 z m 404,-331 c 289,-73 524,-261 651,-519 75,-153 90,-223 90,-415 0,-142 -3,-176 -23,-245 -96,-332 -364,-596 -691,-682 -133,-35 -325,-37 -456,-4 -297,72 -558,302 -674,593 -83,209 -80,471 7,696 96,249 347,477 612,555 119,36 110,35 274,36 104,1 166,-4 210,-15 z"/></g></svg>
