<svg version="1.0" xmlns="http://www.w3.org/2000/svg" width="100%" height="100%" preserveAspectRatio="xMaxYMax" viewBox="0 0 2569.9999 2565.0001"><g fill="#FFFFFF" stroke="none"><path d="M 220,2335 -5,2110 408,1697 820,1285 410,875 C 185,650 0,461 0,455 0,442 448,-6 454,0 c 3,3 186,186 408,407 222,222 411,403 418,403 8,0 198,-183 422,-407 l 408,-408 225,225 c 124,124 225,229 225,235 0,6 -185,195 -410,420 l -410,410 412,412 413,413 -225,225 c -124,124 -229,225 -235,225 -5,0 -193,-183 -417,-407 l -407,-407 -409,407 c -225,224 -413,407 -418,407 -5,0 -110,-101 -234,-225 z"/></g></svg>
